HIERARCHY
ROOT Hips
{
	OFFSET 0.00 0.00 0.00
	CHANNELS 6 Xposition Yposition Zposition Xrotation Yrotation Zrotation
	JOINT LeftUpLeg
	{
		OFFSET 3.34807 0.00000 0.00000
		CHANNELS 3 Xrotation Yrotation Zrotation
		JOINT LeftLeg
		{
			OFFSET 0.00000 -16.98552 0.00000
			CHANNELS 3 Xrotation Yrotation Zrotation
			JOINT LeftFoot
			{
				OFFSET 0.00000 -16.83686 0.00000
				CHANNELS 3 Xrotation Yrotation Zrotation
				JOINT LeftToeBase
				{
					OFFSET 0.00000 -1.59599 5.95633
					CHANNELS 3 Xrotation Yrotation Zrotation
					End Site
					{
						OFFSET 0.00000 0.00000 2.95275
					}
				}
			}
		}
	}
	JOINT RightUpLeg
	{
		OFFSET -3.34807 0.00000 0.00000
		CHANNELS 3 Xrotation Yrotation Zrotation
		JOINT RightLeg
		{
			OFFSET 0.00000 -16.98552 0.00000
			CHANNELS 3 Xrotation Yrotation Zrotation
			JOINT RightFoot
			{
				OFFSET 0.00000 -16.83686 0.00000
				CHANNELS 3 Xrotation Yrotation Zrotation
				JOINT RightToeBase
				{
					OFFSET 0.00000 -1.59599 5.95633
					CHANNELS 3 Xrotation Yrotation Zrotation
					End Site
					{
						OFFSET 0.00000 0.00000 2.95275
					}
				}
			}
		}
	}
	JOINT Spine
	{
		OFFSET 0.00000 0.03937 0.00000
		CHANNELS 3 Xrotation Yrotation Zrotation
		JOINT Spine1
		{
			OFFSET 0.00000 7.93124 0.00000
			CHANNELS 3 Xrotation Yrotation Zrotation
			JOINT Neck
			{
				OFFSET 0.00000 8.48368 0.00000
				CHANNELS 3 Xrotation Yrotation Zrotation
				JOINT Head
				{
					OFFSET 0.00000 6.65077 0.00000
					CHANNELS 3 Xrotation Yrotation Zrotation
					End Site
					{
						OFFSET 0.00000 4.52755 0.00000
					}
				}
			}
			JOINT LeftShoulder
			{
				OFFSET 0.00000 8.48368 0.00000
				CHANNELS 3 Xrotation Yrotation Zrotation
				JOINT LeftArm
				{
					OFFSET 7.74502 -0.00003 0.00000
					CHANNELS 3 Xrotation Yrotation Zrotation
					JOINT LeftForeArm
					{
						OFFSET 12.49824 -0.00005 0.00000
						CHANNELS 3 Xrotation Yrotation Zrotation
						JOINT LeftHand
						{
							OFFSET 9.88337 -0.00004 0.00000
							CHANNELS 3 Xrotation Yrotation Zrotation
							JOINT LeftHandThumb
							{
								OFFSET 0.00000 0.00000 0.00000
								CHANNELS 3 Xrotation Yrotation Zrotation
								End Site
								{
									OFFSET 0.00000 0.00000 3.93700
								}
							}
							JOINT L_Wrist_End
							{
								OFFSET 3.93700 -0.00001 0.00000
								CHANNELS 3 Xrotation Yrotation Zrotation
							}
						}
					}
				}
			}
			JOINT RightShoulder
			{
				OFFSET 0.00000 8.48368 0.00000
				CHANNELS 3 Xrotation Yrotation Zrotation
				JOINT RightArm
				{
					OFFSET -7.74502 -0.00003 0.00000
					CHANNELS 3 Xrotation Yrotation Zrotation
					JOINT RightForeArm
					{
						OFFSET -12.49824 -0.00005 0.00000
						CHANNELS 3 Xrotation Yrotation Zrotation
						JOINT RightHand
						{
							OFFSET -9.88337 -0.00004 0.00000
							CHANNELS 3 Xrotation Yrotation Zrotation
							JOINT RightHandThumb
							{
								OFFSET 0.00000 0.00000 0.00000
								CHANNELS 3 Xrotation Yrotation Zrotation
								End Site
								{
									OFFSET 0.00000 0.00000 3.93700
								}
							}
							JOINT R_Wrist_End
							{
								OFFSET -5.39369 -0.00002 0.00000
								CHANNELS 3 Xrotation Yrotation Zrotation
							}
						}
					}
				}
			}
		}
	}
}
MOTION
Frames: 12
Frame Time: 0.033332
 87.9151 33.3576 3.9167 132.3641 -83.8334 126.8508 -20.2900 5.1568 4.8076 44.7935 -0.0000 0.0000 -33.0232 4.8150 -10.9286 11.0017 -0.0000 0.0000 -8.9629 -12.0220 -9.1736 41.4740 -0.0000 0.0000 -16.2377 -11.6338 36.1154 -6.1634 0.0000 -0.0000 0.9452 -2.7616 -3.4530 18.6891 -7.3136 -2.5905 -11.7859 7.5703 3.8768 10.1134 -9.6901 -0.4903 -7.5178 13.8048 33.1918 4.6989 -29.1201 -50.2818 -0.0005 -66.3122 -0.0003 -3.5501 -32.5240 23.9018 -0.0000 0.0000 -0.0000 -0.0000 0.0000 -0.0000 18.4250 -18.2495 -14.3300 -23.4358 46.0666 76.8298 -0.0002 35.9935 0.0000 74.1271 -64.2432 -116.8390 -0.0000 0.0000 -0.0000 -0.0000 0.0000 -0.0000
 86.9898 33.5472 4.0604 145.3504 -82.7706 139.5491 -17.9272 7.6683 5.5457 43.7668 0.0000 0.0000 -31.8863 3.9356 -12.3489 8.5061 0.0000 0.0000 -7.3409 -11.8979 -9.5542 40.2843 0.0000 0.0000 -12.8958 -10.2111 36.9905 -8.1696 -0.0000 0.0000 0.7928 -2.8024 -3.3136 17.5049 -7.0052 -1.8118 -12.2014 8.0943 3.8246 10.6619 -9.1278 -1.0012 -6.3913 15.0534 34.1017 11.7020 -29.3146 -44.6768 -0.0007 -73.1018 -0.0005 -5.1326 -31.6806 21.6304 -0.0000 0.0000 -0.0000 -0.0000 0.0000 -0.0000 18.6181 -18.3198 -16.5245 -16.5112 47.4782 68.7148 -0.0002 43.3255 0.0001 73.5402 -64.3142 -116.0528 -0.0000 0.0000 -0.0000 -0.0000 0.0000 -0.0000
 86.1043 34.0072 4.1789 154.0308 -81.2489 148.2987 -16.9268 10.8898 6.3638 44.4291 -0.0000 0.0000 -26.9565 2.2577 -15.2195 2.1690 0.0000 -0.0000 -5.5667 -12.5409 -10.3341 37.4892 -0.0000 0.0000 -8.0867 -7.9392 37.7130 -10.5814 -0.0000 -0.0000 0.7018 -2.7549 -3.2543 16.7229 -6.7660 -1.3727 -12.9654 8.1178 3.2730 12.9578 -8.2286 -1.7840 -6.4745 16.6827 34.4241 16.7424 -28.2606 -42.6299 -0.0009 -77.3248 -0.0007 -6.2767 -31.4253 21.0643 -0.0000 0.0000 -0.0000 -0.0000 0.0000 -0.0000 18.1684 -18.1115 -18.5121 -11.7867 47.6333 63.6525 -0.0002 47.5768 0.0001 73.3547 -64.2508 -114.7342 -0.0000 0.0000 -0.0000 -0.0000 0.0000 -0.0000
 85.4896 34.5919 4.2385 148.0345 -81.1220 143.6511 -21.1687 13.7855 7.1012 50.6552 -0.0000 0.0000 -16.9909 -0.4685 -17.5941 -9.3237 0.0000 0.0000 -4.2919 -14.0100 -11.5624 33.4764 -0.0000 0.0000 -3.5376 -6.9439 37.5733 -12.6312 0.0000 -0.0000 0.0484 -2.5263 -3.8075 17.4536 -6.8323 -1.9715 -13.3088 7.1718 2.6809 14.0303 -8.4446 -2.1725 -5.8793 18.1822 33.2882 15.5683 -27.7291 -43.7004 -0.0009 -77.1921 -0.0007 -8.3033 -30.9516 20.0460 -0.0000 0.0000 -0.0000 -0.0000 0.0000 -0.0000 18.2246 -18.4276 -18.4143 -10.6966 47.0124 62.7344 -0.0002 48.4515 0.0001 72.8559 -64.8716 -114.5421 -0.0000 0.0000 -0.0000 -0.0000 0.0000 -0.0000
 85.1736 35.0600 4.2761 127.4435 -80.9888 124.3411 -27.7691 15.2958 7.6241 51.7462 -0.0000 0.0000 -13.7728 3.9109 -17.4932 -13.5312 0.0000 -0.0000 -4.3096 -15.6533 -11.9219 29.5375 -0.0000 0.0000 0.0357 -7.9518 38.2151 -13.7481 0.0000 -0.0000 -0.1794 -2.2349 -3.3890 17.3933 -7.3201 -3.8792 -13.6041 5.6396 2.2158 15.2842 -9.6280 -2.0140 -6.8362 17.3472 32.1935 13.9518 -28.2877 -47.0957 -0.0007 -73.7933 -0.0005 -7.4107 -31.4571 20.8751 -0.0000 0.0000 -0.0000 -0.0000 0.0000 -0.0000 18.5913 -18.7955 -17.0598 -11.3627 47.3521 64.7089 -0.0002 46.7361 0.0001 71.4264 -64.6145 -116.4144 -0.0000 0.0000 -0.0000 -0.0000 0.0000 -0.0000
 84.9458 35.2372 4.2307 109.0070 -80.1655 106.6459 -32.2291 16.3707 7.9634 42.1861 -0.0000 0.0000 -19.9388 1.0042 -17.6701 -13.8265 0.0000 0.0000 -3.6133 -16.1201 -11.4146 25.9594 -0.0000 0.0000 1.4309 -9.8119 39.8197 -13.1564 0.0000 -0.0000 0.1976 -2.1492 -3.1219 17.8666 -7.8095 -5.3719 -13.6273 4.5361 1.7202 15.5224 -10.3352 -1.6120 -7.1602 16.4818 31.2915 12.2024 -29.8690 -51.5220 -0.0006 -69.4652 -0.0004 -6.8912 -31.6411 22.1179 -0.0000 0.0000 -0.0000 -0.0000 0.0000 -0.0000 18.5152 -18.5081 -16.1329 -12.3589 49.0124 67.4761 -0.0002 45.2535 0.0001 72.8119 -63.7420 -115.9259 -0.0000 0.0000 -0.0000 -0.0000 0.0000 -0.0000
 84.7628 35.0457 4.1773 94.8059 -78.7208 93.0403 -36.8423 14.6252 7.3351 33.5472 0.0000 0.0000 -21.6206 -1.1123 -22.3887 -13.3342 -0.0000 -0.0000 -3.4048 -16.5535 -11.2416 24.1520 0.0000 -0.0000 0.1460 -11.1799 41.0892 -12.5220 -0.0000 0.0000 0.7382 -2.2721 -3.2144 19.2088 -8.3580 -6.3644 -13.9742 3.8309 1.4531 14.7190 -10.8075 -1.3403 -7.5947 16.0382 31.0652 11.9565 -33.3991 -55.1104 -0.0005 -66.4380 -0.0003 -7.2349 -31.7129 22.1230 -0.0000 0.0000 -0.0000 -0.0000 0.0000 -0.0000 18.4403 -18.2370 -15.8738 -14.0462 50.6590 70.6493 -0.0002 45.7171 0.0001 75.0732 -63.5122 -114.4543 -0.0000 0.0000 -0.0000 -0.0000 0.0000 -0.0000
 84.4545 34.4734 4.1495 89.0176 -76.9960 87.5479 -42.5234 13.3139 7.6439 33.0155 0.0000 0.0000 -19.7278 0.8766 -20.6435 -10.2465 0.0000 -0.0000 -3.9590 -17.9570 -11.6198 24.0012 0.0000 -0.0000 -3.9387 -11.1557 41.5503 -11.0957 0.0000 -0.0000 0.7660 -2.0215 -3.3869 20.7165 -8.5955 -7.3569 -13.9247 3.5197 1.4410 13.9759 -11.1051 -0.8465 -7.7414 15.7710 31.0581 13.3235 -37.9293 -57.2822 -0.0005 -65.5205 -0.0003 -8.0435 -32.4942 21.3179 -0.0000 0.0000 -0.0000 -0.0000 0.0000 -0.0000 18.6935 -18.0808 -15.3847 -15.3013 52.6769 72.6188 -0.0002 47.1663 0.0001 74.6414 -63.1263 -114.7496 -0.0000 0.0000 -0.0000 -0.0000 0.0000 -0.0000
 83.8609 33.6113 4.1638 90.9689 -76.1826 89.2962 -46.1075 13.6120 9.1678 35.5572 -0.0000 0.0000 -19.1697 -0.7036 -20.7435 -8.4095 0.0000 0.0000 -4.0162 -19.6834 -12.0166 24.8834 -0.0000 0.0000 -9.5593 -11.0280 41.8558 -8.6946 0.0000 0.0000 0.4870 -1.4212 -3.6461 22.0781 -8.4764 -8.2477 -13.1084 3.4863 1.2612 13.5436 -10.8212 -0.3028 -7.3642 16.2459 30.6758 14.4538 -41.1526 -59.5646 -0.0005 -65.8184 -0.0003 -8.3591 -30.7736 18.0751 -0.0000 0.0000 -0.0000 -0.0000 0.0000 -0.0000 18.8289 -17.6924 -14.9688 -16.9269 54.1570 74.7537 -0.0002 47.6758 0.0001 74.0573 -62.6434 -114.9907 -0.0000 0.0000 -0.0000 -0.0000 0.0000 -0.0000
 83.1607 32.6398 4.2289 92.4519 -75.3371 89.7293 -50.1969 11.7990 10.4912 43.2735 -0.0000 0.0000 -21.7545 -2.9536 -24.9234 -4.8275 0.0000 0.0000 -3.9366 -19.7699 -11.3022 26.9984 0.0000 0.0000 -15.1387 -12.9433 41.9436 -6.2648 -0.0000 0.0000 0.2892 -1.2960 -3.4094 22.7258 -8.5793 -8.6580 -12.0556 4.1470 1.4337 11.8593 -10.8024 -0.1575 -7.0961 17.2118 30.2215 15.0639 -43.0744 -62.8700 -0.0005 -65.6038 -0.0003 -6.0643 -29.3455 16.8280 -0.0000 0.0000 -0.0000 -0.0000 0.0000 -0.0000 18.5205 -16.9826 -14.8005 -18.7858 53.4985 77.8400 -0.0002 47.3855 0.0001 74.1779 -63.6946 -115.3078 -0.0000 0.0000 -0.0000 -0.0000 0.0000 -0.0000
 82.4776 31.8895 4.4279 86.5897 -74.5058 84.3293 -53.8962 9.3218 9.1599 50.9146 -0.0000 0.0000 -20.6356 -0.5886 -18.7575 5.4582 0.0000 0.0000 -4.5148 -19.2195 -12.0553 30.3632 -0.0000 -0.0000 -18.8237 -15.3511 42.0058 -5.8646 0.0000 -0.0000 0.5135 -1.4089 -3.6825 23.7985 -8.9574 -9.0770 -11.8176 3.6980 1.3840 10.3867 -11.0584 0.4803 -7.2336 16.9307 29.7141 13.4705 -44.0640 -67.5051 -0.0004 -63.2470 -0.0003 -4.8027 -30.5656 18.3047 -0.0000 0.0000 -0.0000 -0.0000 0.0000 -0.0000 19.0644 -17.3792 -13.5892 -21.8679 51.1790 81.7457 -0.0002 45.8738 0.0001 71.5895 -66.3264 -118.7978 -0.0000 0.0000 -0.0000 -0.0000 0.0000 -0.0000
 81.6819 31.4190 4.6783 82.3085 -73.6616 80.4392 -55.5042 9.4522 8.0277 54.8627 -0.0000 0.0000 -21.5842 0.4046 -16.0409 14.1285 0.0000 0.0000 -4.8227 -19.0432 -12.9472 32.9617 0.0000 0.0000 -19.2331 -16.1733 42.8631 -7.5426 0.0000 0.0000 0.1480 -1.2389 -3.7339 25.0106 -9.0880 -9.4811 -11.4868 3.6866 1.6281 10.5335 -11.5287 0.6829 -7.0477 16.5009 29.3235 10.1565 -44.3538 -73.0084 -0.0004 -59.2184 -0.0002 -3.9740 -31.1215 19.6068 -0.0000 0.0000 -0.0000 -0.0000 0.0000 -0.0000 19.3844 -17.3467 -12.5516 -24.7180 49.5122 85.5811 -0.0002 43.3005 0.0001 67.6996 -68.8871 -122.9157 -0.0000 0.0000 -0.0000 -0.0000 0.0000 -0.0000
